<svg width="38" height="40" viewBox="0 0 38 40" fill="none" xmlns="http://www.w3.org/2000/svg">
<circle cx="26.8618" cy="8.75012" r="7.5" stroke="#122E4F" stroke-width="2"/>
<path d="M20.8618 4.25012C21.0284 6.91679 22.7618 11.9501 30.3618 14.7501M18.8618 10.2501L15.7618 13.2501M24.8618 16.2501L20.8618 19.4787M15.7618 13.2501L3.36177 25.2501C1.86179 26.2501 1.86179 32.2501 7.86177 30.2501L20.8618 19.4787M15.7618 13.2501C16.1284 14.5692 17.6618 17.6616 20.8618 19.4787" stroke="#122E4F" stroke-width="2" stroke-linecap="round" stroke-linejoin="round"/>
<path d="M11.3618 18.2501C11.5285 19.4168 12.6618 22.1501 15.8618 23.7501" stroke="#122E4F" stroke-width="2" stroke-linecap="round" stroke-linejoin="round"/>
<path d="M3.36171 29.7499C-0.638229 31.7501 2.86179 39.7501 8.3617 36.2499L19.8617 26.7499C23.3617 23.7501 27.8617 27.7501 25.3617 31.2499L23.3617 33.25C21.8617 34.75 24.3617 39.75 27.8617 37.75L29.8617 36.2499C30.5284 35.7499 32.2617 35.0499 33.8617 36.2499L36.3617 38.75" stroke="#122E4F" stroke-width="2" stroke-linecap="round" stroke-linejoin="round"/>
</svg>
