<svg width="53" height="39" viewBox="0 0 53 39" fill="none" xmlns="http://www.w3.org/2000/svg">
<path d="M1 23.5V15.5C1 14.3954 1.89543 13.5 3 13.5H8.19279C8.71064 13.5 9.2083 13.2991 9.58106 12.9397L19.6117 3.26726C20.8818 2.04258 23 2.94262 23 4.70695V33.9136C23 35.6599 20.9188 36.5675 19.6391 35.3792L9.57552 26.0344C9.20559 25.6909 8.71944 25.5 8.21462 25.5H3C1.89543 25.5 1 24.6046 1 23.5Z" stroke="#122E4F" stroke-width="2" stroke-linejoin="round"/>
<path d="M31.5 23C35.5 22 39.5 16.6 31.5 13M36 29C40 28 50 16 36 6.99998M40.5 35C46 34 61 15 41 2" stroke="#122E4F" stroke-width="2" stroke-linecap="round" stroke-linejoin="round"/>
</svg>
