<svg width="25" height="25" viewBox="0 0 25 25" fill="none" xmlns="http://www.w3.org/2000/svg">
<path fill-rule="evenodd" clip-rule="evenodd" d="M4 1H11C12.6562 1 14 2.34454 14 4.00207V4.03825V4.07439V4.1105V4.14657V4.18261V4.21861V4.25458V4.29051V4.32641V4.36228V4.39811V4.43391V4.46968V4.50541V4.54111V4.57677V4.6124V4.64801V4.68357V4.71911V4.75461V4.79008V4.82552V4.86092V4.8963V4.93164V4.96695V5.00223V5.03748V5.07269V5.10788V5.14304V5.17816V5.21325V5.24832V5.28335V5.31835V5.35332V5.38827V5.42318V5.45806V5.49292V5.52774V5.56254V5.5973V5.63204V5.66675V5.70143V5.73608V5.7707V5.80529V5.83986V5.8744V5.90891V5.94339V5.97785V6H15V4.00207C15 1.79294 13.2091 0 11 0H4C1.79086 0 0 1.79086 0 4V21C0 23.2091 1.79086 25 4 25H11C13.2091 25 15 23.2071 15 20.9979V18H14V18.0007V18.0343V18.0681V18.1018V18.1356V18.1693V18.2032V18.237V18.2708V18.3047V18.3386V18.3726V18.4065V18.4405V18.4745V18.5085V18.5426V18.5767V18.6108V18.6449V18.6791V18.7133V18.7475V18.7817V18.816V18.8503V18.8846V18.919V18.9533V18.9877V19.0222V19.0566V19.0911V19.1256V19.1601V19.1947V19.2293V19.2639V19.2986V19.3333V19.368V19.4027V19.4375V19.4723V19.5071V19.5419V19.5768V19.6117V19.6467V19.6816V19.7167V19.7517V19.7867V19.8218V19.857V19.8921V19.9273V19.9625V19.9978V20.033V20.0684V20.1037V20.1391V20.1745V20.2099V20.2454V20.2809V20.3164V20.352V20.3876V20.4232V20.4589V20.4946V20.5303V20.5661V20.6019V20.6377V20.6736V20.7095V20.7454V20.7814V20.8174V20.8534V20.8895V20.9256V20.9617V20.9979C14 22.6555 12.6562 24 11 24H4C2.34315 24 1 22.6569 1 21V4C1 2.34315 2.34315 1 4 1Z" fill="#122E4F"/>
<path d="M9.5 14.5V10.5H18.5V8.5L24 12.5L18.5 16.5V14.5H9.5Z" stroke="#122E4F" stroke-linecap="round" stroke-linejoin="round"/>
</svg>
